name Walk8.mot
datacolumns 19
datarows 10
range 1.06000000 1.10500000
endheader

                time	   L_ground_force_vx	   L_ground_force_vy	   L_ground_force_vz	   L_ground_force_px	   L_ground_force_py	   L_ground_force_pz	   R_ground_force_vx	   R_ground_force_vy	   R_ground_force_vz	   R_ground_force_px	   R_ground_force_py	   R_ground_force_pz	   L_ground_torque_x	   L_ground_torque_y	   L_ground_torque_z	   R_ground_torque_x	   R_ground_torque_y	   R_ground_torque_z	
          1.06000000	         -4.76861682	         78.62466409	         -5.71464254	         -0.07556490	          0.00000000	         -0.00833033	         -0.00000000	          0.00000000	         -0.00000000	          0.00000000	          0.00000000	          0.00000000	          0.00000000	          0.12743395	          0.00000000	          0.00000000	          0.00000000	          0.00000000	
          1.06500000	         -8.06555158	        108.18819213	         -7.03917283	         -0.16571637	          0.00000000	         -0.02080165	         -0.00000000	          0.00000000	         -0.00000000	         -0.00000000	          0.00000000	         -0.00000000	          0.00000000	          0.18183500	          0.00000000	          0.00000000	          0.00000000	          0.00000000	
          1.07000000	        -11.58095001	        138.51332853	         -8.30221124	         -0.24488070	          0.00000000	         -0.03189007	         -0.00000000	         -0.00000000	         -0.00000000	         -0.00000000	          0.00000000	         -0.00000000	          0.00000000	          0.24553549	          0.00000000	          0.00000000	          0.00000000	          0.00000000	
          1.07500000	        -15.29440715	        167.92208150	         -9.30344840	         -0.31048290	          0.00000000	         -0.04130734	         -0.00000000	         -0.00000000	         -0.00000000	         -0.00000000	          0.00000000	         -0.00000000	          0.00000000	          0.31696474	          0.00000000	          0.00000000	          0.00000000	          0.00000000	
          1.08000000	        -19.26230965	        195.52701404	         -9.82023270	         -0.36192404	          0.00000000	         -0.04901857	         -0.00000000	         -0.00000001	         -0.00000000	         -0.00000000	          0.00000000	         -0.00000000	          0.00000000	          0.39489507	          0.00000000	          0.00000000	          0.00000000	          0.00000000	
          1.08500000	        -23.55647771	        221.27808670	         -9.67926496	         -0.39992878	          0.00000000	         -0.05514291	         -0.00000000	         -0.00000002	         -0.00000000	         -0.00000000	          0.00000000	         -0.00000000	          0.00000000	          0.47753749	          0.00000000	          0.00000000	          0.00000000	          0.00000000	
          1.09000000	        -28.21482866	        245.48017687	         -8.79456468	         -0.42602442	          0.00000000	         -0.05987768	          0.00000000	         -0.00000002	         -0.00000000	         -0.00000000	          0.00000000	         -0.00000000	          0.00000000	          0.56177496	          0.00000000	          0.00000000	          0.00000000	          0.00000000	
          1.09500000	        -33.21481201	        268.50790852	         -7.17312822	         -0.44214803	          0.00000000	         -0.06344169	          0.00000000	         -0.00000003	         -0.00000000	         -0.00000000	          0.00000000	         -0.00000000	          0.00000000	          0.64305709	          0.00000000	          0.00000000	          0.00000000	          0.00000000	
          1.10000000	        -38.47021071	        290.74084412	         -4.91675043	         -0.45035580	          0.00000000	         -0.06604303	          0.00000000	         -0.00000004	         -0.00000000	         -0.00000000	          0.00000000	         -0.00000000	          0.00000000	          0.71699471	          0.00000000	          0.00000000	          0.00000000	          0.00000000	
          1.10500000	        -43.85639527	        312.56014421	         -2.20982262	         -0.45261625	          0.00000000	         -0.06786658	          0.00000000	         -0.00000006	         -0.00000000	         -0.00000000	          0.00000000	         -0.00000000	          0.00000000	          0.78127427	          0.00000000	          0.00000000	          0.00000000	          0.00000000	
